HIERARCHY
ROOT root
{
	OFFSET	0	13.1	24.9
	CHANNELS 6  Xposition Yposition Zposition Xrotation Yrotation Zrotation
	JOINT spine_1
	{
		OFFSET	0	9.99999	0
		CHANNELS 3  Xrotation Yrotation Zrotation
		JOINT spine_2
		{
			OFFSET	0	112	-10
			CHANNELS 3  Xrotation Yrotation Zrotation
			JOINT spine_3
			{
				OFFSET	0	206.5	19.3
				CHANNELS 3  Xrotation Yrotation Zrotation
				JOINT spine_4
				{
					OFFSET	0	110.4	14.6
					CHANNELS 3  Xrotation Yrotation Zrotation
					JOINT neck_1
					{
						OFFSET	0	71.8	-50.3
						CHANNELS 3  Xrotation Yrotation Zrotation
						JOINT neck_2
						{
							OFFSET	0	86.2	-25.8
							CHANNELS 3  Xrotation Yrotation Zrotation
							JOINT head_ee
							{
								OFFSET	0	179.8	-8.7
								CHANNELS 3  Xrotation Yrotation Zrotation
								End Site
								{
									OFFSET	1	0	0
								}
							}
						}
					}
					JOINT left_clavicle
					{
						OFFSET	-43.2	22.4	-70.8
						CHANNELS 3  Xrotation Yrotation Zrotation
						JOINT left_shoulder
						{
							OFFSET	-93.9	-5.79999	48.7
							CHANNELS 3  Xrotation Yrotation Zrotation
							JOINT left_elbow
							{
								OFFSET	-291.4	-30.8	15.2
								CHANNELS 3  Xrotation Yrotation Zrotation
								JOINT left_lowarm_twist
								{
									OFFSET	-110.7	-3.89999	13.6
									CHANNELS 3  Xrotation Yrotation Zrotation
									JOINT left_hand
									{
										OFFSET	-110.7	-3.89999	13.6
										CHANNELS 3  Xrotation Yrotation Zrotation
										JOINT left_ee
										{
											OFFSET	-80.8	-5.10001	12.1
											CHANNELS 3  Xrotation Yrotation Zrotation
											End Site
											{
												OFFSET	1	0	0
											}
										}
									}
								}
							}
						}
					}
					JOINT right_clavicle
					{
						OFFSET	43.2	22.4	-70.8
						CHANNELS 3  Xrotation Yrotation Zrotation
						JOINT right_shoulder
						{
							OFFSET	93.9	-5.79999	48.7
							CHANNELS 3  Xrotation Yrotation Zrotation
							JOINT right_elbow
							{
								OFFSET	291.4	-30.8	15.2
								CHANNELS 3  Xrotation Yrotation Zrotation
								JOINT right_lowarm_twist
								{
									OFFSET	110.7	-3.89999	13.6
									CHANNELS 3  Xrotation Yrotation Zrotation
									JOINT right_hand
									{
										OFFSET	110.7	-3.89999	13.6
										CHANNELS 3  Xrotation Yrotation Zrotation
										JOINT right_ee
										{
											OFFSET	80.8	-5.10001	12.1
											CHANNELS 3  Xrotation Yrotation Zrotation
											End Site
											{
												OFFSET	1	0	0
											}
										}
									}
								}
							}
						}
					}
				}
			}
		}
	}
	JOINT left_hip
	{
		OFFSET	-82.8	-127.5	0.300001
		CHANNELS 3  Xrotation Yrotation Zrotation
		JOINT left_knee
		{
			OFFSET	-28.2	-396.7	2.2
			CHANNELS 3  Xrotation Yrotation Zrotation
			JOINT left_ankle
			{
				OFFSET	-11.7	-411.3	35.4
				CHANNELS 3  Xrotation Yrotation Zrotation
				JOINT left_toes
				{
					OFFSET	0	-60	-88.6
					CHANNELS 3  Xrotation Yrotation Zrotation
					JOINT left_foot_ee
					{
						OFFSET	-22.5	-16.5	-42.2
						CHANNELS 3  Xrotation Yrotation Zrotation
						End Site
						{
							OFFSET	1	0	0
						}
					}
				}
			}
		}
	}
	JOINT right_hip
	{
		OFFSET	82.8	-127.5	0.300001
		CHANNELS 3  Xrotation Yrotation Zrotation
		JOINT right_knee
		{
			OFFSET	28.2	-396.7	2.2
			CHANNELS 3  Xrotation Yrotation Zrotation
			JOINT right_ankle
			{
				OFFSET	11.7	-411.3	35.4
				CHANNELS 3  Xrotation Yrotation Zrotation
				JOINT right_toes
				{
					OFFSET	0	-60	-88.6
					CHANNELS 3  Xrotation Yrotation Zrotation
					JOINT right_foot_ee
					{
						OFFSET	22.5	-16.5	-42.2
						CHANNELS 3  Xrotation Yrotation Zrotation
						End Site
						{
							OFFSET	1	0	0
						}
					}
				}
			}
		}
	}
}
MOTION
Frames: 9
Frame Time: 0.02
680.443 643.216 -482.182 -125.994 -87.6765 -131.421 -0.623296 0.727159 2.71422 -0.619368 0.55304 2.75495 -0.589489 -0.0670689 2.80907 -0.600302 0.377237 2.78445 -10.0423 4.54876 -4.72287 -10.0157 11.7492 -3.47306 -0.0 0.0 -0.0 3.72287 20.7007 7.82266 -23.9854 -15.9914 66.7413 0.163227 -4.62288 0.00658853 -36.3056 -2.56711 3.7829 3.26959 30.2944 30.7685 -0.0 0.0 -0.0 13.5475 25.668 -26.9862 10.4421 7.32682 -56.9185 3.09872 56.9053 -1.67944 -84.9803 8.44946 -5.18507 -1.60538 -25.8198 -1.20704 0.0 0.0 0.0 30.5645 13.9968 2.68911 -0.915383 0.0366081 0.135706 -13.8226 9.45341 2.06995 -8.57641 0.0 0.0 -0.0 0.0 -0.0 -16.7639 -6.44831 7.23936 -3.99242 -0.143668 -0.595748 -0.315094 -26.7582 -0.0486127 38.1786 -0.0 -0.0 0.0 0.0 0.0 
702.381 643.96 -483.199 -120.938 -87.5993 -126.289 -0.487653 0.670203 2.67451 -0.483812 0.498723 2.7117 -0.457234 -0.104225 2.75518 -0.467673 0.332045 2.73709 -10.0453 5.29352 -2.51374 -10.0671 11.6609 -1.12504 -0.0 0.0 -0.0 4.0069 22.0362 8.23584 -24.2965 -16.7943 64.7435 0.182369 -5.16224 0.00822107 -35.642 -2.50007 3.73042 3.1407 30.0776 29.916 -0.0 0.0 -0.0 13.5391 24.7312 -27.0737 10.9332 7.23655 -58.2721 2.86482 54.8192 -1.48582 -84.9737 8.44863 -5.18523 -1.51902 -24.4832 -1.08165 0.0 0.0 0.0 29.2301 14.4934 2.71713 0.253207 -0.0105094 -0.0374353 -17.4301 7.96312 2.61747 -7.03326 0.0 0.0 -0.0 0.0 -0.0 -17.3472 -6.84285 6.50087 -3.89757 -0.140738 -0.581485 6.28525 -27.4681 0.958375 39.798 -0.0 -0.0 0.0 0.0 0.0 
725.846 646.07 -484.8 -134.402 -87.2513 -139.031 -0.355736 0.582713 2.72225 -0.351706 0.408375 2.75378 -0.329285 -0.195479 2.77701 -0.339962 0.245378 2.77305 -10.6435 5.5818 -1.37397 -10.6869 11.4466 0.119973 -0.0 0.0 -0.0 4.10817 23.1795 8.37077 -24.628 -17.1363 63.833 0.178575 -5.05539 0.00788323 -31.5862 -2.10398 3.39327 3.46962 30.2652 32.0612 -0.0 0.0 -0.0 13.5009 22.4203 -27.2183 8.54226 9.7386 -59.2323 3.15119 57.3435 -1.72351 -84.9808 8.44953 -5.18505 -1.74348 -23.3947 0.700366 0.0 0.0 0.0 28.1057 14.8168 2.1205 0.647193 -0.0271909 -0.0955929 -19.7766 7.51531 2.97351 -5.62881 0.0 0.0 -0.0 0.0 -0.0 -18.1588 -6.12244 5.75476 -4.43906 -0.157147 -0.662968 15.0212 -26.5132 2.2156 40.0265 -0.0 -0.0 0.0 0.0 0.0 
751.1 649.267 -488.151 -146.117 -87.2766 -150.379 -0.182508 0.511267 2.76714 -0.17831 0.334221 2.79404 -0.159443 -0.268358 2.80112 -0.170348 0.177215 2.80836 -10.2216 5.52879 -2.38178 -10.251 12.0153 -0.91768 -0.0 0.0 -0.0 4.32475 23.2334 8.6732 -24.8307 -17.4506 62.9803 0.176822 -5.00601 0.00772956 -26.9468 -1.68161 2.97463 3.50709 29.8327 32.2584 -0.0 0.0 -0.0 13.3052 22.4107 -26.7616 6.43422 11.0364 -60.8016 2.69758 53.1819 -1.3505 -84.6976 8.4141 -5.19191 -1.54028 -22.3758 0.00313676 0.0 0.0 0.0 27.2542 14.8627 1.50094 -3.91468 0.141268 0.584059 -12.7904 8.38351 1.91327 -2.11145 0.0 0.0 -0.0 0.0 -0.0 -18.8194 -4.77033 6.06534 -7.27652 -0.23049 -1.0922 17.3525 -22.3466 2.4816 39.8524 -0.0 -0.0 0.0 0.0 0.0 
777.431 648.864 -489.772 -151.768 -87.7349 -154.925 -0.18277 0.409502 2.47865 -0.179387 0.251 2.49967 -0.166432 -0.287329 2.49575 -0.175108 0.110307 2.50981 -9.27695 5.52591 -2.20236 -9.29251 11.8827 -0.843666 -0.0 0.0 -0.0 4.60877 23.2375 9.07121 -24.9396 -17.7888 62.136 0.185882 -5.26111 0.00854023 -25.3265 -1.54231 2.82061 3.69443 30.0348 33.525 -0.0 0.0 -0.0 13.2176 20.3144 -26.7304 5.58976 10.7555 -62.1386 2.56239 51.7599 -1.24328 -83.6434 8.28193 -5.21589 -1.70433 -23.7886 0.291779 0.0 0.0 0.0 27.752 14.7303 -0.026141 -8.55816 0.256628 1.28713 -10.4524 9.58091 1.5594 2.57591 -0.0 -0.0 -0.0 0.0 -0.0 -20.0728 -3.48935 3.72159 -8.19704 -0.249705 -1.23215 25.0885 -22.6125 3.47436 39.1205 -0.0 -0.0 0.0 0.0 0.0 
804.79 651.349 -494.25 -175.309 -87.709 -177.941 -0.151473 0.362647 2.47269 -0.148094 0.204618 2.49073 -0.137291 -0.329523 2.47731 -0.145849 0.0657318 2.49826 -9.33328 5.53329 -4.15966 -9.31804 13.2376 -2.7595 -0.0 0.0 -0.0 4.67509 22.8937 9.17342 -24.3781 -18.2071 62.1138 0.209403 -5.92237 0.0108321 -22.1449 -1.28176 2.50712 3.57965 29.8838 32.744 -0.0 0.0 -0.0 12.3259 19.7178 -24.7035 6.26816 10.4212 -65.6756 2.15323 46.8411 -0.932792 -84.5507 8.39571 -5.1954 -1.53591 -22.6741 -0.15895 0.0 0.0 0.0 29.0957 13.7352 -1.72454 -21.9756 0.266937 3.34113 5.58723 9.74046 -0.80583 0.311332 -0.0 -0.0 -0.0 0.0 -0.0 -19.4637 -0.442974 4.55476 -14.5152 -0.320642 -2.19851 27.4112 -20.3133 3.71328 39.5505 -0.0 -0.0 0.0 0.0 0.0 
825.14 650.4 -497.617 -178.079 -88.862 179.638 -0.0925189 0.186564 2.37995 -0.0893683 0.0347871 2.387 -0.0863991 -0.471462 2.34026 -0.0940291 -0.096055 2.38532 -10.0943 5.99169 -3.8587 -10.1081 13.8798 -2.25572 -0.0 0.0 -0.0 4.64326 22.6472 9.13451 -21.8519 -19.1243 61.8375 0.214401 -6.0627 0.0113539 -18.9162 -1.03563 2.17484 3.80658 30.7782 34.3449 -0.0 0.0 -0.0 11.9061 19.312 -23.7659 3.98059 10.002 -66.2534 2.15016 46.8003 -0.930553 -84.7214 8.41708 -5.19134 -1.79437 -22.2013 1.55784 0.0 0.0 0.0 29.9257 15.567 -3.11927 -27.2855 0.138428 4.14557 10.113 7.75287 -1.43691 -1.89811 0.0 0.0 -0.0 0.0 -0.0 -19.0764 0.338224 4.5549 -18.2033 -0.312696 -2.76422 31.3954 -19.2973 4.14613 39.7373 -0.0 -0.0 0.0 0.0 0.0 
847.329 648.361 -502.35 168.42 -87.9756 166.823 0.00847813 0.151783 2.3746 0.0116151 0.000417309 2.37944 0.0130227 -0.499439 2.32646 0.00549184 -0.125859 2.37611 -9.94055 5.88005 -4.92721 -9.92603 14.3939 -3.35039 -0.0 0.0 -0.0 5.08814 22.3469 9.77892 -21.217 -19.4733 61.2783 0.196446 -5.55831 0.00953618 -16.8404 -0.887488 1.95419 3.74631 30.715 33.9355 -0.0 0.0 -0.0 11.6306 19.1112 -23.1489 4.48282 9.10512 -68.504 1.80805 41.8455 -0.6913 -84.4657 8.38507 -5.1974 -1.70947 -21.0233 1.61856 0.0 0.0 0.0 30.8914 14.45 -4.80815 -34.8529 -0.17219 5.26447 18.6492 6.02353 -2.56245 -2.11169 0.0 0.0 -0.0 0.0 -0.0 -18.4443 1.95882 5.04559 -23.5515 -0.23659 -3.58104 36.6291 -15.882 4.6309 39.8815 -0.0 -0.0 0.0 0.0 0.0 
871.665 655.262 -511.006 81.342 -88.9491 79.5964 -0.0904907 0.106024 2.26396 -0.0876399 -0.0382151 2.26612 -0.0878636 -0.517296 2.20665 -0.0946223 -0.162399 2.26062 -10.6622 5.23276 -5.44802 -10.6403 13.4944 -3.93307 -0.0 0.0 -0.0 5.32175 21.7963 10.1379 -18.6782 -21.5648 60.9708 0.193323 -5.47047 0.0092361 -16.0389 -0.832443 1.86758 3.90206 30.7929 34.9913 -0.0 0.0 -0.0 11.567 18.6821 -23.0309 1.38026 6.02455 -68.2941 1.72064 40.4392 -0.633781 -83.5965 8.27604 -5.21689 -2.98148 -26.9343 5.86159 0.0 0.0 0.0 27.0286 13.32 -1.83388 -31.0157 0.00382544 4.70211 19.0539 12.5499 -2.62412 -3.06136 0.0 0.0 -0.0 0.0 -0.0 -17.6324 5.91745 3.84481 -27.5442 -0.130267 -4.18443 37.6079 -17.4652 4.75118 39.7151 -0.0 -0.0 0.0 0.0 0.0 
